<?xml version="1.0" encoding="UTF-8"?>
<svg version="1.1" viewBox="0 0 2048 1502" width="973" height="714" xmlns="http://www.w3.org/2000/svg">
<path transform="translate(0)" d="m0 0h2048v1502h-2048z" fill="#FDFDFD"/>
<path transform="translate(1e3 212)" d="m0 0h73l29 2 39 6 35 7 34 10 36 12 26 11 29 14 19 10 25 15 28 19 14 10 16 13 14 12 12 11 13 12 21 21 9 11 9 10 8 10 10 13 13 18 10 15 15 25 10 18 9 17 13 29 12 31 10 31 10 38 5 25 4 28 2 22v95l-3 31-6 35-7 31-9 31-10 29-10 24-12 26-12 23-16 27-14 21-13 18-13 17-12 14-13 15-7 7-7 8-18 18-8 7-14 12-15 12-20 15-15 10-20 13-15 9-25 13-16 8-22 10-34 13-25 8-38 10-39 7-22 3-11 1h-101l-36-4-29-5-34-8-28-8-33-12-26-11-29-14-22-12-20-12-22-15-18-13-10-8-16-13-14-12-12-11-26-26-7-8-9-10-8-10-16-21-13-18-10-16-11-18-16-29-13-27-12-30-13-38-8-30-7-34-5-36-2-23v-82l3-32 6-37 9-38 8-28 12-33 12-28 12-25 13-24 12-20 10-16 12-17 10-13 11-14 9-10 7-8 15-16 23-23 8-7 14-12 14-11 17-13 23-16 28-17 32-17 25-12 26-10 25-9 26-8 33-8 36-6 30-4z" fill="#FDFDFD"/>
<path transform="translate(1e3 212)" d="m0 0h73l29 2 39 6 35 7 34 10 36 12 26 11 29 14 19 10 25 15 28 19 14 10 16 13 14 12 12 11 13 12 21 21 9 11 9 10 8 10 10 13 13 18 10 15 15 25 10 18 9 17 13 29 12 31 10 31 10 38 5 25 4 28 2 22v95l-3 31-6 35-7 31-9 31-10 29-10 24-12 26-12 23-16 27-14 21-13 18-13 17-12 14-13 15-7 7-7 8-18 18-8 7-14 12-15 12-20 15-15 10-20 13-15 9-25 13-16 8-22 10-34 13-25 8-38 10-39 7-22 3-11 1h-101l-36-4-29-5-34-8-28-8-33-12-26-11-29-14-22-12-20-12-22-15-18-13-10-8-16-13-14-12-12-11-26-26-7-8-9-10-8-10-16-21-13-18-10-16-11-18-16-29-13-27-12-30-13-38-8-30-7-34-5-36-2-23v-82l3-32 6-37 9-38 8-28 12-33 12-28 12-25 13-24 12-20 10-16 12-17 10-13 11-14 9-10 7-8 15-16 23-23 8-7 14-12 14-11 17-13 23-16 28-17 32-17 25-12 26-10 25-9 26-8 33-8 36-6 30-4zm21 35-34 2-33 4-31 6-29 7-26 8-30 11-30 13-26 13-24 14-19 12-20 14-17 13-11 9-10 9-8 7-13 12-13 13-7 8-10 11-9 11-10 12-12 16-18 27-8 13-16 29-17 38-11 29-9 28-7 26-7 35-4 29-3 38v43l3 39 5 35 7 33 8 30 12 35 10 24 17 35 12 22 12 19 8 12 12 17 11 14 9 11 12 14 14 15 18 18 8 7 11 10 11 9 15 12 20 14 20 13 24 14 20 11 29 13 28 11 30 10 30 8 31 6 37 5 47 3h16l49-3 30-4 32-6 31-8 36-12 27-10 25-12 17-8 23-13 27-18 11-7 13-10 11-9 13-11 8-7 10-9 27-27 9-11 11-12 11-14 11-15 13-19 11-17 14-25 13-25 13-31 10-28 8-26 8-34 6-36 3-27 1-13 1-39-2-40-4-35-6-32-6-24-13-42-11-28-12-27-11-22-14-24-12-19-13-18-12-16-9-11-13-15-9-10-31-31-8-7-13-11-13-10-19-14-27-18-21-12-20-11-28-13-36-14-28-9-42-10-27-5-26-3-35-2z" fill="#3C8B57"/>
<path transform="translate(1259,646)" d="m0 0h17l21 3 19 5 18 7 18 10 14 10 11 9 10 9 14 14 11 14 9 11 3 6-53 1-29 1h-43l-1-5-2-28-4 1-11 18-8 13-3 2-11 1h-23l-5-9-5-1-3 3-3 7-10 3-34 6-34 4-23 2-29 1-5 4-2 4v6l12-3 14-4h11l10 2 12 6 8 8 6 10 6 18 2 11v11h7l3 2 5 20 1 15-2 9 9 2 5 13 3 14v11l-3 6-2 2-7-1-2-23-2-10-2-3-2-10-7-2-1-19-5-17-1-9-6 2-3-4-4-23-5-13-6-8-6-5-7-3h-17l-14 4-12 7-4 5-3 13-2 21-2 35v36l2 44 3 38 7 65 9 60 2 5 4 1h234l5 2v6l-2 2h-469l-141-1-2-1v-7l183-1 87-1 4-15 8-40 4-26 3-35 1-17v-64l-3-44-5-35-5-32-7-25-7-16-8-9-11 1-56 11-30 4-25 2-26 1h-16l-35-2-21-3-11-3-4-9-3-8-4 2-12 16-8 4-28 6-20 2h-68l-11-2 2-5 11-15 11-12 20-20 14-11 14-10 27-14 25-9 22-5 18-3 26-2 19 1 22 3 39 8 25 7 23 8 20 9 19 10 16 11 18 13 10 8 7 11 6 14 8 24 4 21v10l-4 5v14l3 10 8 10 3 42v66l-2 36-4 36-7 41-5 25h73l-7-44-6-54-4-33-3-41-1-21v-52l1-13 1-3 1-33 4-25 8-29 9-19 7-9 11-12 8-7 8-8 11-9 12-10 24-16 18-10 19-9 24-8 18-4z" fill="#3C8B57"/>
<path transform="translate(1335,482)" d="m0 0h23l11 4 32 21 21 13 19 12 16 10 9 7v2l-17 3-41 8-22 6-17 6-19 9-7-1-8-4-10-7-7-3-6 1-3 1-2 4-10 14-8 7-22 12-36 18-66 36-33 17-23 12-16 10-6 5-6 10-11 26-11 30-5 11-7-2v-8l12-36 7-16 8-17 13-23 14-23 12-18 14-20 16-21 9-11 12-14 12-13 10-10 8-7 16-13 18-12 18-10 21-10 24-8 27-6z" fill="#3C8B57"/>
<path transform="translate(744,473)" d="m0 0h11l21 5 18 6 17 8 18 11 12 9 14 12 8 8-2 11-2 7v8l4 2 22 2 8 3 10 10 11 14 14 17 15 20 13 18 14 19 13 20 9 15 10 17 10 19 7 19 2 8v13l-1 2-4-1-4-3-3-14-7-16-12-25-7-11-7-3-30-6-30-8-30-11-18-8-19-10-21-14-13-11-10-11-14-20-13-21-15-27-12-23-12-25-6-15-1-4v-8l4-5z" fill="#3C8B57"/>
<path transform="translate(897,1384)" d="m0 0 30 2 24 3 10 4 6 4 5 8 1 4v8l-3 8-5 6-12 6-5 1 5 9 14 20 6 8 1 3 4 2 10 6v1h-16l-9-1-9-12-10-15-13-19-7-2h-2l-2 20v16l3 4 8 3v2l-21-1-20-2-1-2 11-3 2-3 2-17 4-49v-13l-1-3-10-3z" fill="#F50E1D"/>
<path transform="translate(1364,1348)" d="m0 0h9l11 3 7 6 4 10v9l-5 10-9 8-2 2 19 14 13 9 9 5 13 2-1 3-23 6-13-9-18-13-15-11-9 1 8 30 3 6 4 2h9l-1 3-36 10-4-1 9-6 1-6-7-27-12-43-4-6-6-1h-5l1-3 44-12z" fill="#F50E1D"/>
<path transform="translate(204,1052)" d="m0 0 5 2 15 14 8 7 11 10 7 10 3 8v9l-5 10-6 5-8 3h-7l-10-3-5-2v12l-1 19v19l4 10 1 4-4-2-12-11-4-3 1-28 1-17v-14l-4-4-3-1-2 4-13 14-6 8-1 6 5 9h-3l-10-9-13-12-6-5 1-3 8 4 6-1 4-2 2-4 15-16 7-8 11-12 9-10 4-6-1-7-4-5z" fill="#F50E1D"/>
<path transform="translate(576,157)" d="m0 0h17l9 4 6 8 2 6v8l-4 10-9 9h-2v2l5 2 26 15 12 6 14 2-1 3-19 7-6-1-27-16-19-11-7 2 1 6 10 26 1 3 10 1h5l-3 3-29 11-5 2h-3l1-3 6-4 1-1v-8l-17-45-9-23-1-3-6-1h-8l3-3 37-14z" fill="#F50E1D"/>
<path transform="translate(1080,444)" d="m0 0h8l2 4-1 5-5 11-8 30-6 31-10 63-10 87-7 76-3 17-2 3-7-2v-29l7-78 12-93 10-58 6-26 10-35z" fill="#3C8B57"/>
<path transform="translate(911,78)" d="m0 0h4v3l-9 4-7 7-9 12-11 14-6 7v2l12 9 17 13 16 12 11 6 13 2v2l-9 2-31 4h-9l3-3 4-3-1-6-4-2-18-14-12-9-5-4 1 16 2 16 2 7 12 2 1 2-8 2-31 4h-4l1-3 9-4 1-1v-14l-8-62-2-6-4-2-9-1v-2l9-2 34-4v3l-9 3-2 2v13l3 24h2l7-7 9-11 8-10 5-9v-5l-9-3 1-2z" fill="#F50E1D"/>
<path transform="translate(813,1366)" d="m0 0h3l10 43 11 50 4 9 7 5v1l-10-1-26-5-4-2 2-2 9-1v-11l-4-16-38-8-2 5-8 11-2 4 1 6 7 4-2 2-25-5v-3l7-2 8-9 11-16 16-23 13-19z" fill="#F50E1D"/>
<path transform="translate(1472,140)" d="m0 0 3 1 8 96 2 8 6 5v2l-11-3-26-9v-3h8l3-3v-16l-1-8-10-4-27-9-2 4-8 8-4 5-1 4 4 5 3 2v2l-6-1-19-7-1-3 9-2 8-7 7-7 7-8 15-16 22-24z" fill="#F50E1D"/>
<path transform="translate(1023,68)" d="m0 0 4 4 19 42 18 40 5 8 8 4 1 2h-40v-2l8-3 1-1v-6l-8-18v-2l-5 1-34 1-8 20v6l9 2v3h-27v-2l7-4 8-16 31-74z" fill="#F50E1D"/>
<path transform="translate(414,1226)" d="m0 0h18l11 3 12 6 11 9 8 9 5-1 4-1-1 5-11 23h-2l-1-16-4-10-7-9-9-6-8-3h-17l-10 4-8 6-7 8-6 11-3 9-1 12 3 13 6 10 9 8 9 4 5 1h9l13-22 2-4v-6l-4-5-2-1v-3l4 1 25 14 6 4-1 3-3-1h-8l-5 6-14 24h-12l-13-3-16-8-12-9-8-9-7-14-2-8v-13l4-13 7-10 5-5 6-5 12-6z" fill="#F50E1D"/>
<path transform="translate(1120,74)" d="m0 0h9l18 2 8 10 14 20 10 14 12 17 10 14 3-23 3-29v-10l-3-3-9-3 1-2 32 3 2 1v2l-12 1-2 2-2 12-7 69-1 8h-3l-10-13-12-17-26-36-11-15-3 24-3 30v11l4 5 8 3-1 2-24-2-9-1v-3l11-2 3-6 6-58v-14l-6-7-10-4z" fill="#F50E1D"/>
<path transform="translate(1562,178)" d="m0 0 6 2 19 9 5 15 17 61 4 13 8-16 15-31 3-10-4-5-5-3v-2l5 1 27 13v3l-9-3h-5l-5 8-10 21-8 16-15 32-4 5-3-7-26-91-10 19-15 31-2 5v8l5 5 2 1v3l-6-2-25-12v-2l12 1 5-5 8-16 9-19 8-16 5-11-1-7-5-8-6-4z" fill="#F50E1D"/>
<path transform="translate(1273,92)" d="m0 0 8 1 18 4 4 4 10 19 13 23 10 19 9 16 2-6 11-50-1-7-10-4v-2h7l26 6 2 1v2h-14l-3 7-17 77-2 5h-2l-14-25-25-45-10-17v-2h-2l-1 10-10 45-1 9 2 5 9 5v2l-12-2-22-5-1-2 11-1 3-1 4-11 11-49 2-10v-6l-4-6-5-4-6-3z" fill="#F50E1D"/>
<path transform="translate(1265,1371)" d="m0 0h6l3 9 2 11h-3l-5-8-4-3-6-1-32 5 6 36 21-4 10-3 2-3 1-9 3-1 5 28v5l-3-1-4-8-4-2-17 2-12 2 2 16 4 21 1 2h9l22-4 8-4 6-9 4-8h2l-2 16-2 9-39 7-31 5h-6v-2l10-5v-13l-10-60-3-9-4-2-8-1v-2l8-2z" fill="#F50E1D"/>
<path transform="translate(305,1140)" d="m0 0 4 1 16 12 36 26 6 4-2 5-8 12-3 1 2-12-3-7-8-7-14-10-4-3h-2l-13 19-6 8-1 3 4 2 17 12 2 1h7l4-3h2v-2l3 1-7 11-10 13-1 2h-3l2-6v-8l-4-5-17-12-4-1-13 18-7 10-1 5 5 5 19 13 5 2h10l11-4h2l-2 4-17 12-11-7-16-12-17-12-18-13 1-3 7 3 7-1 9-11 12-17 14-19 10-14 1-6-4-6z" fill="#F50E1D"/>
<path transform="translate(1793,1126)" d="m0 0 4 1 11 13v2l-4-1-8-4-7 1-11 7-11 9-4 3h-2l6 9 14 18 1 3 5-3 13-10 6-5 1-2v-7l-2-4v-3l4 2 12 16 5 7v2l-4-2-4-3h-7l-7 4-16 12 2 5 14 18 5 7 7 1 17-13 6-5 4-7 1-11-1-8h3l8 21-1 3-16 12-17 13-18 14-9 6-2-1 6-8-1-7-10-14-14-18-15-20-7-8-7-1-8 3v-3l16-12 30-23z" fill="#F50E1D"/>
<path transform="translate(1151,1385)" d="m0 0 3 1 2 24v6h-3l-7-14-7-6-8-3h-7l-7 3-4 4-2 4 1 7 4 6 14 8 19 10 8 6 6 9 2 7-1 10-4 8-9 8-9 3h-17l-9-2-7 1-4 4-1-1-2-25v-7l3 1 7 14 8 7 5 2h13l7-3 4-5 1-2v-8l-4-7-9-7-25-13-10-9-3-6-1-11 3-9 7-8 8-4 4-1h12l15 3h2z" fill="#F50E1D"/>
<path transform="translate(1868,1056)" d="m0 0 4 1 8 8 7 8 4 5v2l-5-2-9-4-4-1h-9l-10 4-4 5-2 4v9l3 5 6 3 13-1 21-4 8-1h9l10 3 8 7 4 8 1 10-3 10-4 6-7 7-18 10-1 4v4l-4-1-11-12-8-9v-2l4 1 8 4 4 1h13l10-5 6-9 1-7-3-7-5-4-3-1h-14l-28 5h-10l-8-3-7-6-4-8-1-9 3-10 4-6 8-7 15-8z" fill="#F50E1D"/>
<path transform="translate(473,197)" d="m0 0 4 2 10 21 2 3v3l-4-2-9-8-8-3h-11l-7 3-5 5-1 3v9l5 6 6 2 35 4 13 4 8 7 4 8 1 10-4 11-7 8-8 5-9 3-14 3-3 7-3-1-13-26v-2l4 1 5 5 5 4 7 3h12l10-5 4-5 2-5-1-8-5-6-7-3-23-3-16-2-9-4-5-5-4-6-1-3v-12l3-7 7-8 9-5 19-4z" fill="#F50E1D"/>
<path transform="translate(522,1275)" d="m0 0 6 1 23 10 11 5v2h-11l-5 5-18 42-5 14v10l4 9 6 5 12 5 5 1h9l9-4 3-1 2-4 5-8 15-35 5-13v-6l-9-9 6 1 26 11 1 3-6-1h-8l-5 8-17 39-6 12-8 8-12 5h-14l-15-5-11-7-8-9-4-11v-9l4-13 12-27 7-17v-8l-4-4z" fill="#F50E1D"/>
<path transform="translate(1524,1291)" d="m0 0 4 1-5 6-2 8v93l-5-2-9-9-7-8-10-10v-2h-2l-7-8-12-12-7-8-8-8-7-4h-9l-1-2 21-9 17-6v3l-6 4 1 7 7 8 14 15 9 9 7 8 7 6-1-54-1-12-2-2h-9v-3z" fill="#F50E1D"/>
<path transform="translate(1700,1192)" d="m0 0h3l9 13 8 11v2l-4-1-6-5-8-3h-15l-12 5-9 8-5 10-1 5v9l4 14 8 15 9 10 8 5 6 2 9 1 12-2 10-5 6-5 7-11 4-16 3 1-2 14-4 10-7 9-10 8-11 5-8 2h-17l-10-3-8-4-10-9-6-8-5-12-1-5v-17l4-13 7-11 8-8 11-7 13-4 9-3z" fill="#F50E1D"/>
<path transform="translate(653,1329)" d="m0 0 8 1 33 10v3h-10l-4 4-8 25-14 46v4l11 4 17 5h9l9-4 8-8h2l-2 5-12 18-10-2-46-14-17-5-1-3h12l4-4 8-25 14-47-2-6-9-5z" fill="#F50E1D"/>
<path transform="translate(706,115)" d="m0 0 1 3-8 4-2 2v9l18 65 3 6 1 1 13 1v2l-24 7-14 4h-5l4-4 6-2 1-8-7-26-11-40-4-8-3-2h-11l3-3z" fill="#F50E1D"/>
<path transform="translate(1594,1256)" d="m0 0h3l-1 3-6 4-1 2v7l33 66 4 3 13-1v2l-16 8-17 8-4 2-3-1 8-7v-8l-31-62-3-5-6-2-10 2 1-3z" fill="#F50E1D"/>
<path transform="translate(930,1392)" d="m0 0h8l8 3 5 4 4 8v10l-3 7-5 5-7 3-5 1h-12l-1-1v-12l2-24 2-3z" fill="#E9E8E9"/>
<path transform="translate(222,1076)" d="m0 0 8 4 7 8 2 4v9l-4 9-7 6-10 2-10-3-8-6-4-5 15-16z" fill="#E9E8E9"/>
<path transform="translate(1355,1355)" d="m0 0h7l8 4 6 7 2 5v9l-4 8-7 6-13 5h-2l-7-24-3-11 1-4 8-4z" fill="#E9E8E9"/>
<path transform="translate(568,165)" d="m0 0h11l7 4 5 6 2 5v11l-5 8-5 4-10 5h-4l-8-20-5-13 1-4 8-5z" fill="#E9E8E9"/>
<path transform="translate(1159,888)" d="m0 0 9 1 1 1 1 21 3 12v9l-1 6 5 3 1 4 1 19 3 13v6l-2 2h-6l-5-5-3-9-1-5v-14l2-10 2-3-1-4-5-5-5-15-2-15v-9z" fill="#3C8B57"/>
<path transform="translate(1839,1103)" d="m0 0 2 3 6 8 7 4 4 1h10l28-5h14l6 3 5 6 1 7-3 8-2 1-1-3-8-2-5-3-2-1h-32l-9-2-14-7-5-4-4-8z" fill="#E9E8E9"/>
<path transform="translate(1143,97)" d="m0 0 5 5 39 54 12 17-3 3-4-1v-2h-2v-2h-2l-9-11-2-5h-2l-10-14-7-6-11-6-3-4-3-1v8h-1v-10z" fill="#E9E8E9"/>
<path transform="translate(1293,118)" d="m0 0h2l13 23 30 54 3 5-1 2-4 1-5-5v-2h-2l-7-11-4-8-2-3v-3h-2l-5-9-8-8-2-1v-2l-5-2-3-5-2-1-1 3 1-9z" fill="#E9E8E9"/>
<path transform="translate(922,1437)" d="m0 0 8 1 7 9 8 12 15 22 3 5-5 1-8-6-10-8-5-3-4 1-2 2h-8l-2 1v-16l2-20z" fill="#E9E8E9"/>
<path transform="translate(433,240)" d="m0 0 2 3 5 8 6 4 12 3 28 3 10 3 6 5 3 6-1 8-4 6-1-4h-5l-1-3-4-2-8-5-21-5-15-8-8-5v-2h-2l-2-5z" fill="#E9E8E9"/>
<path transform="translate(191,1109)" d="m0 0 4 1 4 4v14l-2 35-1 10-2-1v-2h-2l-2-7-2-14-2-8h-12l-4-1-2 1 1-6 9-11 12-13z" fill="#E9E8E9"/>
<path transform="translate(859,135)" d="m0 0 8 6 19 14 13 10 2 3-1 4-6 4 7 1v1h-10l-2-1 1-2-6-5-8-2v2l-10 1-2 2-2-5-3-24z" fill="#E9E8E9"/>
<path transform="translate(1576,208)" d="m0 0 2 1 22 77 3 10-1 4-5-2-6-15-9-30-7-12-5-7-2-4h-2l2-6z" fill="#E9E8E9"/>
<path transform="translate(1360,1401)" d="m0 0 4 1 36 26 9 6-2 3-8-1-9-5-5-3-10-2-4 5-3 3-4 1-1 3-5-16-4-14v-5z" fill="#E9E8E9"/>
<path transform="translate(579,210)" d="m0 0 10 5 39 23 4 2-5 2-2 1-27-9-5 1-5 6-4-1v5l-2-2-10-26 1-5z" fill="#E9E8E9"/>
<path transform="translate(1340,480)" d="m0 0h15l12 2 11 7 34 21 20 12 19 12 16 11 4 5-1 3-9 2-14 3-43 7-31 9-16 7-3-1 20-9 22-7 21-5 32-6 9-2h8l-5-5-15-10-21-13-24-15-29-19-10-5-4-1h-23l-16 1v-1z" fill="#E9E8E9"/>
<path transform="translate(1098,1415)" d="m0 0h1l3 9 7 8 24 13 11 7 6 7 1 3v8l-3 5-4-2-5-3-4-8-1-3h-2v-2l-5-2-12-8-5-5-5-4v-2l-3-1v-2h-2v-2h-2l-3-7 1-4z" fill="#E9E8E9"/>
<path transform="translate(1460,162)" d="m0 0h1l2 19 1 11v11l-11-3-20-7 2-4 12-13 11-12z" fill="#E9E8E9"/>
<path transform="translate(1018,93)" d="m0 0h2l13 29 3 9h-33l3-10 11-25z" fill="#E9E8E9"/>
<path transform="translate(804,1389)" d="m0 0 2 1 8 35v4l-11-1-21-4 1-4 15-22z" fill="#E9E8E9"/>
<path transform="translate(1570,1275)" d="m0 0 4 2 14 27 20 40v8l-2 1v-2l-4-1-6-10-7-16-6-10-14-28-1-9z" fill="#E9E8E9"/>
<path transform="translate(1748,1170)" d="m0 0 4 2 10 12 9 12 10 13 15 20 2 4-1 7-1-3h-5l-8-11-8-10v-2h-2l-7-10v-2h-2l-4-6-11-14-3-9z" fill="#E9E8E9"/>
<path transform="translate(537,177)" d="m0 0 4 1 5 10 15 40 8 21v8l-3 2-5-6-6-17-5-12-6-16-7-20z" fill="#E9E8E9"/>
<path transform="translate(212,1125)" d="m0 0 5 1 10 3h17l-1 5-6 3-9 3-5 5-4 11-2 12-1 3-5 1 1 7-2-4v-19z" fill="#E9E8E9"/>
<path transform="translate(1153,1116)" d="m0 0h183l1 1v11l-2 1-247-2v-1h246l1-1v-6l-4-1h-135l-43-1z" fill="#E9E8E9"/>
<path transform="translate(836,95)" d="m0 0 2 2 3 19 6 47v14l-3 2v-2l-3-1-3-6-1-17-3-24-2-25v-5l4-1z" fill="#E9E8E9"/>
<path transform="translate(1447,1328)" d="m0 0 4 1 10 9 8 8 7 8 12 12v2h2l7 8 10 10 3 5v4l-6-1v-2l-4-2-11-11-6-7v-2l-4-2-3-3v-2h-2v-2h-2v-2h-2v-2h-2v-2l-4-2-1-3h-2l-4-4v-2h-2l-2-5h-2l-3-4z" fill="#E9E8E9"/>
<path transform="translate(1325,1366)" d="m0 0 3 3 5 16 14 51 1 8-2 3-4-1-4-10-6-23-3-10-7-28v-6z" fill="#E9E8E9"/>
<path transform="translate(1595,207)" d="m0 0 4 2 3 9 2 10 2 1 3 10 6 8 2 1v2h2l-1 4 1 9 1 3-6 13-2-1-15-52-3-11v-7z" fill="#E9E8E9"/>
<path transform="translate(730,1115)" d="m0 0h33l51 1 91 1v1h-183v7l143 1v1l-108 2-36-1-3-4 1-7 1-1z" fill="#E9E8E9"/>
<path transform="translate(1646,1246)" d="m0 0h1l1 16 4 13 6 10 8 8 9 5 8 3 4 1h17l7-1-2 2-6 2-2 3h-20l-11-3-2-1v-2l-5-2-10-9-6-7-4-9-1-4v-10l2-3z" fill="#E9E8E9"/>
<path transform="translate(678,131)" d="m0 0 3 3 4 13 15 53 1 10-3 1-5-5-3-9-4-17-10-36-1-9 1-2h2z" fill="#E9E8E9"/>
<path transform="translate(1192,936)" d="m0 0h6l4 9 4 15 1 13-3 8-2 2h-6l-2-3-2-20-4-16 1-6z" fill="#3C8B57"/>
<path transform="translate(1210,1389)" d="m0 0 2 3 8 46 3 19v13l-2 1v-2l-3-1-3-7-3-21-3-18-3-22v-8h4z" fill="#E9E8E9"/>
<path transform="translate(1145,840)" d="m0 0h7l1 1 1 24 4 13-1 6-5 5h-2l-5-7-3-12-1-9v-15z" fill="#3C8B57"/>
<path transform="translate(1186,833)" d="m0 0 7 1 4 11 2 11v15l-3 6-2 2-5-1-2-4-1-21-5-10-1-7z" fill="#3C8B57"/>
<path transform="translate(1126,843)" d="m0 0 6 2 1 2-1 9-1 4v10l3 6 5 8v3l-5 2-2 1-6-4-5-7-2-6v-18l3-9z" fill="#3C8B57"/>
<path transform="translate(1204,885)" d="m0 0h5l4 7 4 16 1 13-3 8-2 2-5-1-3-1-1-21-4-16-1-5z" fill="#3C8B57"/>
<path transform="translate(1476,152)" d="m0 0h1l1 10 5 1 3 10 2 16v8h-1l-1-7v10l2 15v14l-2 2h-2l-1 6h-1l-6-74z" fill="#E9E8E9"/>
<path transform="translate(1206,830)" d="m0 0h5l5 6 3 8 1 6v17l-3 7h-8l-1-22-6-15v-5z" fill="#3C8B57"/>
<path transform="translate(1146,891)" d="m0 0h4l1 12v16l3 11-1 5-2 2-4-1v-2h-3l-3-8-3-18v-11l4-5z" fill="#3C8B57"/>
<path transform="translate(907,1392)" d="m0 0 2 1v13l-5 61-2 7-4-2-1-3 1-23 3-30 3-20 3-2z" fill="#E9E8E9"/>
<path transform="translate(300,1196)" d="m0 0 4 1 18 13 1 2-5-2-11-1-7 3-8 9 2 2-3 7-2 2-7 2-4-4 1-5 7-10 13-18z" fill="#E9E8E9"/>
<path transform="translate(411,1239)" d="m0 0 5 2 2 1-2 4-6 5-1 2h-2l-2 5h-2l-1 5-5 13-2 13-2 2h-5l-1-11 3-14 5-10 7-9z" fill="#E9E8E9"/>
<path transform="translate(679,1347)" d="m0 0 1 4 3 1-1 8-7 17-6 18-1 15v9 1l2 1-3 3 1 2-6-1-5-3 1-7 17-56z" fill="#E9E8E9"/>
<path transform="translate(857,89)" d="m0 0 2 1-3 5h5l5 5v2l4 1 1 7-1 4-2-1v5l1 2-7 8-4 3-2-10-2-16v-13z" fill="#E9E8E9"/>
<path transform="translate(1863,1078)" d="m0 0 6 2 10 3 8 8h-20l-8 1 6 4v6h5v1l-13 1-7-4-1-5 1-3 2 3 1 4v-7l3-1-3-5 5-5z" fill="#E9E8E9"/>
<path transform="translate(325,1161)" d="m0 0 5 2 6 5-4 3-3 1-7 8-2 3h2l2-4 3-2 3 1-5 5-5 10-3 1 1-4-2-1-1 3-7 2-3-2 1-4 13-19z" fill="#E9E8E9"/>
<path transform="translate(547,1295)" d="m0 0 1 3 2 1-1 9-2 4h-2l-2 6-4 8-6 16-3 12-1 7-4 1-1-2-2 4v-10l5-14 13-30 6-13z" fill="#E9E8E9"/>
<path transform="translate(1226,1384)" d="m0 0 7 1 3 3 1 2 2-2 2 1-1 10-2 2-1-1 1 8-1 9 4 2-9 1-2-8-4-24z" fill="#E9E8E9"/>
<path transform="translate(1034,136)" d="m0 0h5l9 20v6l-3 3-3-1-5-5-6-11-3-9v-2z" fill="#E9E8E9"/>
<path transform="translate(1240,1424)" d="m0 0h6l-4 2 3 3v24l1 6-5-1-1-1-2 2-5-29 1-5z" fill="#E9E8E9"/>
<path transform="translate(663,1338)" d="m0 0 2 4-12 40-9 29-2 5-1-3-1-9 4-10 3-9 9-30 2-3h2l1-9z" fill="#E9E8E9"/>
<path transform="translate(807,1434)" d="m0 0 8 1 3 8 2 9v9l-3 3h-5l2-2-1-4h-2l-6-17-1-4v-2z" fill="#E9E8E9"/>
<path transform="translate(1511,1304)" d="m0 0 2 1 1 12 1 54h-3l-12-12-2-4h4l1-5 2-2h6v2h2z" fill="#E9E8E9"/>
<path transform="translate(217,1096)" d="m0 0 5 1v3h2l1-3-1 10 5 2 3 1-1 2h-4l-2 4h-15l-5-3v-3l7-3 3-9z" fill="#FDFCFD"/>
<path transform="translate(1454,206)" d="m0 0 9 2 2 2 1 8v16l-2 3h-2v-2l-3-1-3-9-3-13-1-5z" fill="#E9E8E9"/>
<path transform="translate(1118,1394)" d="m0 0 2 1-6 7-2 1 1 2 3-5 9-1 6 4-1 6v7l-6-5h-2l-2 4-2 3-4-2-4-8 1-6 4-6z" fill="#E9E8E9"/>
<path transform="translate(630,728)" d="m0 0 2 1-27 27-10 13-7 11 11 1 66 1v1l-35 1h-29l-13-1-3-2 1-5 11-14 10-12 5-4 7-8z" fill="#E9E8E9"/>
<path transform="translate(829,1410)" d="m0 0 2 1 1 3-1 4h2l4 12 5 18v6l-5 1-1 4-7-32v-9l-1-7z" fill="#EAE9EA"/>
<path transform="translate(1178,556)" d="m0 0 2 1-11 11-7 8-12 14-13 17-12 16-11 16-10 15-1-2 10-16 7-10 8-11 5-8h2l2-5 8-11 8-10z" fill="#E9E8E9"/>
<path transform="translate(461,218)" d="m0 0 5 4 2 5 7 1-2 5-17-2-3-1v3l-3 1-2-4 3-3h-4l2-4 5-3z" fill="#E9E8E9"/>
<path transform="translate(1338,149)" d="m0 0 4 1 4 2v1l-8 1v4l3-4 4 2 2 2 1 5h1l-1 9-2 7-3-3-10-18v-2h2v-5l3-1z" fill="#E9E8E9"/>
<path transform="translate(963,1431)" d="m0 0 2 1-1 1 2 1-1 9-2 7-6 2 3 1-3 1-10-15 1-2 10-3z" fill="#E9E8E9"/>
<path transform="translate(1391,1383)" d="m0 0 1 2 1 4v-4h3l3 18-2-1-1-4-3 5v3l-5-2-10-8 4-4 7-6z" fill="#E9E8E9"/>
<path transform="translate(1195,127)" d="m0 0 5 1 2 3 2-3v10l-2 14-5-5-10-14 2-4h2l1 4 2-5z" fill="#E9E8E9"/>
<path transform="translate(1527,1292)" d="m0 0v3l-3 4-2 12v21l1 21 2 9-1 5 1 8-3 25-3-1h2l-1-37v-56l3-10z" fill="#E9E8E9"/>
<path transform="translate(372,1262)" d="m0 0h1v18l4 13 6 10 2 4-5-2-6-3-5-8-2-7v-9l4-2v-10z" fill="#E9E8E9"/>
<path transform="translate(778,673)" d="m0 0h16l16 1 25 5 28 6 14 5-4 1-24-6-35-7-36-4z" fill="#E9E8E9"/>
<path transform="translate(609,192)" d="m0 0 4 4 1 9-2-2-2 5h-2l1 3-5-2-9-5v-2l8-7 3-2 2 2z" fill="#E9E8E9"/>
<path transform="translate(1476,152)" d="m0 0h1l1 10 5 1 3 10 2 16v8h-1l-1-13-5-2-3-2-2-17z" fill="#E9E8E9"/>
<path transform="translate(1792,1187)" d="m0 0h2v2l-1 1 3 1 3-3 2 2 3 12-2 2h-4l2 5-5-5-8-11 1-3z" fill="#E9E8E9"/>
<path transform="translate(531,1287)" d="m0 0h1l-1 7-13 31-4 9-2-2v-6l4-9 5-12 8-12z" fill="#E9E8E9"/>
<path transform="translate(1451,173)" d="m0 0 1 2-3 10-4 2v7l-1 1-9-1-2-1 2-4 12-13z" fill="#FAFAFA"/>
<path transform="translate(1662,1227)" d="m0 0 1 3-1 3v11l2 3 1 11 4 7h3l1-3 3 12-3 3-6-9-5-11-3-11v-9z" fill="#E9E8E9"/>
<path transform="translate(796,1404)" d="m0 0h1l-1 10-2 3h-2v7h-10l1-4 9-13z" fill="#FBFBFB"/>
<path transform="translate(1765,1154)" d="m0 0 2 1-2 3 5-3 5 5 1 7-4 1h-2l-1 2-8-11v-2z" fill="#E9E8E9"/>
<path transform="translate(461,1300)" d="m0 0 2 1-4 5 1 4-5 10h-2l-2 5-5 1v-3l10-18z" fill="#E9E8E9"/>
<path transform="translate(910,175)" d="m0 0h7l5 3-1 3-6 3-9-1-2-2v-3l-2-2z" fill="#E9E8E9"/>
<path transform="translate(261,1226)" d="m0 0 4 2 17 12 12 9h-3l-9-6-7-2-10-6v-2h-2z" fill="#E9E8E9"/>
<path transform="translate(1262,644)" d="m0 0 25 1 23 6-4 1-13-3-17-2h-17l-23 3-4-1 14-3z" fill="#E9E8E9"/>
<path transform="translate(1011,113)" d="m0 0h2v13l4 4h-12l1-9z" fill="#FCFBFC"/>
<path transform="translate(1134,84)" d="m0 0 3 3v14l-1 10h-1v-11l-3-1-2-8 1-5z" fill="#E9E8E9"/>
<path transform="translate(1463,243)" d="m0 0 5 1 15 5-2 4-5 1-8-4-5-5z" fill="#E9E8E9"/>
<path transform="translate(507,1349)" d="m0 0h1l2 13 5 11-6-1-3-3-1-2v-11z" fill="#E9E8E9"/>
<path transform="translate(893,565)" d="m0 0 4 2 7 7 9 11 11 14 8 10-1 2-11-13-8-10-13-16z" fill="#E9E8E9"/>
<path transform="translate(1210,131)" d="m0 0h1v16l1 3-1 1v9l1 7-4 4h-1l1-21z" fill="#E9E8E9"/>
<path transform="translate(862,181)" d="m0 0h7v1h-6l1 3-4 4-4 1-4-1v-4l-6-1v-1z" fill="#EAE9EA"/>
<path transform="translate(641,1425)" d="m0 0 9 2 10 3-2 4h-8l-7-4z" fill="#E9E8E9"/>
<path transform="translate(897,1481)" d="m0 0h13l21 2v1h-11l-2 3-7 1-4-5-10-1z" fill="#E9E8E9"/>
<path transform="translate(565,166)" d="m0 0h13l-2 4-10 2-7 1 2-5z" fill="#FBFBFB"/>
<path transform="translate(879,122)" d="m0 0 5 1 2 3-1 4h-2v4l-4-2-4-4 2-4z" fill="#E9E8E9"/>
<path transform="translate(713,180)" d="m0 0 4 2 2 9-3 3h-3l-2-10z" fill="#EAE9EA"/>
<path transform="translate(823,1470)" d="m0 0 9 1 10 2v1h-7v3l-3 1-7-3-3-2z" fill="#E9E8E9"/>
<path transform="translate(930,1392)" d="m0 0h8l4 1v2l2 1h-3v2l-5 1-6-3h-3v-2h3z" fill="#FAFAFA"/>
<path transform="translate(1352,1357)" d="m0 0h11v3h-2v3l-10-1-5-1 3-3z" fill="#FEFEFE"/>
<path transform="translate(1287,105)" d="m0 0 2 2-1 10-1 6h-1l-1-5-2-1-1-5 2-6z" fill="#E9E8E9"/>
<path transform="translate(1480,171)" d="m0 0 4 1 2 11h-3l-4-3v-7z" fill="#FEFEFE"/>
<path transform="translate(1230,1474)" d="m0 0 11 1v4l-5 2-6-1 2-4z" fill="#E9E8E9"/>
<path transform="translate(1308,572)" d="m0 0v3l-7 11-8 8-4 1 5-5 8-10z" fill="#E9E8E9"/>
<path transform="translate(1010,761)" d="m0 0h1l1 11 3 1-2 1-1 4-4-3 1-6z" fill="#E9E8E9"/>
<path transform="translate(942,1426)" d="m0 0h5l-1 4-3 1h-10l2-2z" fill="#F9F8F9"/>
<path transform="translate(1153,837)" d="m0 0 3 3-1 2-1 23h-1l-1-24-6-1v-1h7z" fill="#E9E8E9"/>
<path transform="translate(1471,1315)" d="m0 0 2 1-3 3-1 3h3v2l2 1 1 6-5-4-2-4v-5z" fill="#EAE9EA"/>
<path transform="translate(578,200)" d="m0 0 3 1-4 2v2l-3 1-1 2h-4v-5h6z" fill="#FBFAFB"/>
<path transform="translate(227,1080)" d="m0 0 4 1 5 5-1 4v-2l-4-1z" fill="#F8F8F8"/>
<path transform="translate(938,1407)" d="m0 0h2v8l-3 2-2-5z" fill="#FEFEFE"/>
<path transform="translate(1604,236)" d="m0 0 3 2 2 7-5-2-1-6z" fill="#FDFDFD"/>
</svg>
